<mxfile host="app.diagrams.net" modified="2023-11-15T07:35:01.200Z" agent="Mozilla/5.0 (Windows NT 10.0; Win64; x64; rv:109.0) Gecko/20100101 Firefox/119.0" etag="UH3yPIqy3ZYRUi7ZHjFI" version="22.1.1" type="device">
  <diagram name="Page-1" id="2YBvvXClWsGukQMizWep">
    <mxGraphModel dx="2085" dy="1756" grid="1" gridSize="10" guides="1" tooltips="1" connect="1" arrows="1" fold="1" page="1" pageScale="1" pageWidth="850" pageHeight="1100" math="0" shadow="0">
      <root>
        <mxCell id="0" />
        <mxCell id="1" parent="0" />
        <mxCell id="PTGc_cxeWPIYV6TBkI2--80" value="" style="rounded=0;whiteSpace=wrap;html=1;strokeColor=none;" vertex="1" parent="1">
          <mxGeometry x="-240" y="-40" width="1490" height="1490" as="geometry" />
        </mxCell>
        <mxCell id="PTGc_cxeWPIYV6TBkI2--75" value="" style="endArrow=none;dashed=1;html=1;rounded=0;entryX=0.5;entryY=1;entryDx=0;entryDy=0;exitX=0.491;exitY=0.609;exitDx=0;exitDy=0;exitPerimeter=0;fillColor=#dae8fc;strokeColor=#6c8ebf;" edge="1" parent="1" source="PTGc_cxeWPIYV6TBkI2--24" target="PTGc_cxeWPIYV6TBkI2--16">
          <mxGeometry width="50" height="50" relative="1" as="geometry">
            <mxPoint x="710" y="1320" as="sourcePoint" />
            <mxPoint x="590" y="340" as="targetPoint" />
          </mxGeometry>
        </mxCell>
        <mxCell id="PTGc_cxeWPIYV6TBkI2--70" value="" style="endArrow=none;dashed=1;html=1;rounded=0;entryX=0.5;entryY=1;entryDx=0;entryDy=0;exitX=0.467;exitY=0.667;exitDx=0;exitDy=0;exitPerimeter=0;fillColor=#dae8fc;strokeColor=#6c8ebf;" edge="1" parent="1">
          <mxGeometry width="50" height="50" relative="1" as="geometry">
            <mxPoint x="339.5" y="1330.0100000000002" as="sourcePoint" />
            <mxPoint x="340.49" y="640" as="targetPoint" />
            <Array as="points" />
          </mxGeometry>
        </mxCell>
        <mxCell id="PTGc_cxeWPIYV6TBkI2--69" value="" style="endArrow=none;dashed=1;html=1;rounded=0;entryX=0.5;entryY=1;entryDx=0;entryDy=0;exitX=0.635;exitY=1.001;exitDx=0;exitDy=0;exitPerimeter=0;fillColor=#dae8fc;strokeColor=#6c8ebf;" edge="1" parent="1" source="PTGc_cxeWPIYV6TBkI2--79" target="PTGc_cxeWPIYV6TBkI2--3">
          <mxGeometry width="50" height="50" relative="1" as="geometry">
            <mxPoint x="700" y="1310" as="sourcePoint" />
            <mxPoint x="140" y="120" as="targetPoint" />
          </mxGeometry>
        </mxCell>
        <mxCell id="PTGc_cxeWPIYV6TBkI2--67" value="" style="endArrow=none;dashed=1;html=1;rounded=0;entryX=0.5;entryY=1;entryDx=0;entryDy=0;fillColor=#dae8fc;strokeColor=#6c8ebf;" edge="1" parent="1" source="PTGc_cxeWPIYV6TBkI2--60" target="PTGc_cxeWPIYV6TBkI2--2">
          <mxGeometry width="50" height="50" relative="1" as="geometry">
            <mxPoint x="70" y="1551.1764705882354" as="sourcePoint" />
            <mxPoint x="470" y="100" as="targetPoint" />
          </mxGeometry>
        </mxCell>
        <mxCell id="PTGc_cxeWPIYV6TBkI2--68" value="" style="endArrow=none;dashed=1;html=1;rounded=0;entryX=0.5;entryY=1;entryDx=0;entryDy=0;fillColor=#dae8fc;strokeColor=#6c8ebf;" edge="1" parent="1" target="PTGc_cxeWPIYV6TBkI2--60">
          <mxGeometry width="50" height="50" relative="1" as="geometry">
            <mxPoint x="70" y="1380" as="sourcePoint" />
            <mxPoint x="70" y="100" as="targetPoint" />
          </mxGeometry>
        </mxCell>
        <mxCell id="PTGc_cxeWPIYV6TBkI2--2" value="App" style="ellipse;whiteSpace=wrap;html=1;aspect=fixed;fillColor=#fff2cc;strokeColor=#d6b656;" vertex="1" parent="1">
          <mxGeometry x="30" y="20" width="80" height="80" as="geometry" />
        </mxCell>
        <mxCell id="PTGc_cxeWPIYV6TBkI2--3" value="&lt;div&gt;API&lt;/div&gt;" style="ellipse;whiteSpace=wrap;html=1;aspect=fixed;fillColor=#fff2cc;strokeColor=#d6b656;" vertex="1" parent="1">
          <mxGeometry x="660" y="20" width="80" height="80" as="geometry" />
        </mxCell>
        <mxCell id="PTGc_cxeWPIYV6TBkI2--4" value="&lt;div&gt;generateCipher(searchQuery)&lt;/div&gt;" style="text;html=1;fillColor=none;align=center;verticalAlign=middle;whiteSpace=wrap;rounded=0;" vertex="1" parent="1">
          <mxGeometry x="835" y="310" width="60" height="30" as="geometry" />
        </mxCell>
        <mxCell id="PTGc_cxeWPIYV6TBkI2--5" value="Neo4j" style="ellipse;whiteSpace=wrap;html=1;aspect=fixed;fillColor=#fff2cc;strokeColor=#d6b656;" vertex="1" parent="1">
          <mxGeometry x="1000" y="20" width="80" height="80" as="geometry" />
        </mxCell>
        <mxCell id="PTGc_cxeWPIYV6TBkI2--6" value="" style="endArrow=classic;html=1;rounded=0;fillColor=#dae8fc;strokeColor=#6c8ebf;" edge="1" parent="1" target="PTGc_cxeWPIYV6TBkI2--30">
          <mxGeometry width="50" height="50" relative="1" as="geometry">
            <mxPoint x="75" y="209.47" as="sourcePoint" />
            <mxPoint x="300" y="209" as="targetPoint" />
          </mxGeometry>
        </mxCell>
        <mxCell id="PTGc_cxeWPIYV6TBkI2--7" value="getResults(searchQuery)" style="text;html=1;fillColor=none;align=center;verticalAlign=middle;whiteSpace=wrap;rounded=0;" vertex="1" parent="1">
          <mxGeometry x="345" y="180" width="60" height="30" as="geometry" />
        </mxCell>
        <mxCell id="PTGc_cxeWPIYV6TBkI2--8" value="" style="endArrow=classic;html=1;rounded=0;fillColor=#dae8fc;strokeColor=#6c8ebf;" edge="1" parent="1" target="PTGc_cxeWPIYV6TBkI2--37">
          <mxGeometry width="50" height="50" relative="1" as="geometry">
            <mxPoint x="710" y="340" as="sourcePoint" />
            <mxPoint x="980" y="340" as="targetPoint" />
          </mxGeometry>
        </mxCell>
        <mxCell id="PTGc_cxeWPIYV6TBkI2--9" value="" style="endArrow=classic;html=1;rounded=0;dashed=1;dashPattern=8 8;fillColor=#dae8fc;strokeColor=#6c8ebf;" edge="1" parent="1" target="PTGc_cxeWPIYV6TBkI2--30">
          <mxGeometry width="50" height="50" relative="1" as="geometry">
            <mxPoint x="1035" y="379.99999999999994" as="sourcePoint" />
            <mxPoint x="650" y="379.99999999999994" as="targetPoint" />
          </mxGeometry>
        </mxCell>
        <mxCell id="PTGc_cxeWPIYV6TBkI2--10" value="Deliver results of query" style="text;html=1;fillColor=none;align=center;verticalAlign=middle;whiteSpace=wrap;rounded=0;" vertex="1" parent="1">
          <mxGeometry x="770" y="350" width="190" height="30" as="geometry" />
        </mxCell>
        <mxCell id="PTGc_cxeWPIYV6TBkI2--11" value="" style="endArrow=classic;html=1;rounded=0;fillColor=#dae8fc;strokeColor=#6c8ebf;" edge="1" parent="1" target="PTGc_cxeWPIYV6TBkI2--40">
          <mxGeometry width="50" height="50" relative="1" as="geometry">
            <mxPoint x="635" y="530" as="sourcePoint" />
            <mxPoint x="265" y="530" as="targetPoint" />
          </mxGeometry>
        </mxCell>
        <mxCell id="PTGc_cxeWPIYV6TBkI2--12" value="jsonEncode(rankedResults)" style="text;html=1;fillColor=none;align=center;verticalAlign=middle;whiteSpace=wrap;rounded=0;" vertex="1" parent="1">
          <mxGeometry x="180" y="500" width="190" height="30" as="geometry" />
        </mxCell>
        <mxCell id="PTGc_cxeWPIYV6TBkI2--13" value="&lt;div&gt;SearchResults&lt;/div&gt;&lt;div&gt;Page&lt;/div&gt;" style="ellipse;whiteSpace=wrap;html=1;aspect=fixed;fillColor=#fff2cc;strokeColor=#d6b656;" vertex="1" parent="1">
          <mxGeometry x="300" y="560" width="80" height="80" as="geometry" />
        </mxCell>
        <mxCell id="PTGc_cxeWPIYV6TBkI2--14" value="" style="endArrow=classic;html=1;rounded=0;entryX=0;entryY=0.5;entryDx=0;entryDy=0;fillColor=#dae8fc;strokeColor=#6c8ebf;" edge="1" parent="1" source="PTGc_cxeWPIYV6TBkI2--40" target="PTGc_cxeWPIYV6TBkI2--13">
          <mxGeometry width="50" height="50" relative="1" as="geometry">
            <mxPoint x="100" y="610" as="sourcePoint" />
            <mxPoint x="345" y="610" as="targetPoint" />
          </mxGeometry>
        </mxCell>
        <mxCell id="PTGc_cxeWPIYV6TBkI2--15" value="SearchResultsPage(searchResults)" style="text;html=1;fillColor=none;align=center;verticalAlign=middle;whiteSpace=wrap;rounded=0;" vertex="1" parent="1">
          <mxGeometry x="90" y="570" width="190" height="30" as="geometry" />
        </mxCell>
        <mxCell id="PTGc_cxeWPIYV6TBkI2--16" value="&lt;div&gt;ResultPage&lt;/div&gt;" style="ellipse;whiteSpace=wrap;html=1;aspect=fixed;fillColor=#fff2cc;strokeColor=#d6b656;" vertex="1" parent="1">
          <mxGeometry x="500" y="700" width="80" height="80" as="geometry" />
        </mxCell>
        <mxCell id="PTGc_cxeWPIYV6TBkI2--17" value="" style="endArrow=classic;html=1;rounded=0;entryX=0;entryY=0.5;entryDx=0;entryDy=0;fillColor=#dae8fc;strokeColor=#6c8ebf;" edge="1" parent="1" source="PTGc_cxeWPIYV6TBkI2--42" target="PTGc_cxeWPIYV6TBkI2--16">
          <mxGeometry width="50" height="50" relative="1" as="geometry">
            <mxPoint x="410" y="800" as="sourcePoint" />
            <mxPoint x="620" y="800" as="targetPoint" />
          </mxGeometry>
        </mxCell>
        <mxCell id="PTGc_cxeWPIYV6TBkI2--18" value="ResultPage(searchResult)" style="text;html=1;fillColor=none;align=center;verticalAlign=middle;whiteSpace=wrap;rounded=0;" vertex="1" parent="1">
          <mxGeometry x="325" y="710" width="190" height="30" as="geometry" />
        </mxCell>
        <mxCell id="PTGc_cxeWPIYV6TBkI2--19" value="Loop" style="shape=umlFrame;whiteSpace=wrap;html=1;pointerEvents=0;fillColor=#dae8fc;strokeColor=#6c8ebf;" vertex="1" parent="1">
          <mxGeometry x="-20" y="660" width="750" height="550" as="geometry" />
        </mxCell>
        <mxCell id="PTGc_cxeWPIYV6TBkI2--20" value="" style="endArrow=classic;html=1;rounded=0;exitX=0.5;exitY=0.235;exitDx=0;exitDy=0;exitPerimeter=0;fillColor=#dae8fc;strokeColor=#6c8ebf;" edge="1" parent="1">
          <mxGeometry width="50" height="50" relative="1" as="geometry">
            <mxPoint x="540" y="1049.95" as="sourcePoint" />
            <mxPoint x="345" y="1049.95" as="targetPoint" />
          </mxGeometry>
        </mxCell>
        <mxCell id="PTGc_cxeWPIYV6TBkI2--21" value="goBack()" style="text;html=1;fillColor=none;align=center;verticalAlign=middle;whiteSpace=wrap;rounded=0;" vertex="1" parent="1">
          <mxGeometry x="345" y="1020" width="190" height="30" as="geometry" />
        </mxCell>
        <mxCell id="PTGc_cxeWPIYV6TBkI2--22" value="" style="endArrow=classic;html=1;rounded=0;dashed=1;dashPattern=8 8;fillColor=#dae8fc;strokeColor=#6c8ebf;" edge="1" parent="1" target="PTGc_cxeWPIYV6TBkI2--42">
          <mxGeometry width="50" height="50" relative="1" as="geometry">
            <mxPoint x="75" y="698.95" as="sourcePoint" />
            <mxPoint x="405" y="698.95" as="targetPoint" />
          </mxGeometry>
        </mxCell>
        <mxCell id="PTGc_cxeWPIYV6TBkI2--23" value="User clicks on any search result" style="text;html=1;fillColor=none;align=center;verticalAlign=middle;whiteSpace=wrap;rounded=0;" vertex="1" parent="1">
          <mxGeometry x="120" y="670" width="190" height="30" as="geometry" />
        </mxCell>
        <mxCell id="PTGc_cxeWPIYV6TBkI2--24" value="" style="shape=umlDestroy;whiteSpace=wrap;html=1;strokeWidth=3;targetShapes=umlLifeline;fillColor=#e51400;strokeColor=#B20000;fontColor=#ffffff;" vertex="1" parent="1">
          <mxGeometry x="525" y="1100" width="30" height="30" as="geometry" />
        </mxCell>
        <mxCell id="PTGc_cxeWPIYV6TBkI2--25" value="" style="endArrow=classic;html=1;rounded=0;fillColor=#dae8fc;strokeColor=#6c8ebf;" edge="1" parent="1" source="PTGc_cxeWPIYV6TBkI2--59" target="PTGc_cxeWPIYV6TBkI2--60">
          <mxGeometry width="50" height="50" relative="1" as="geometry">
            <mxPoint x="325" y="1270" as="sourcePoint" />
            <mxPoint x="70" y="1270" as="targetPoint" />
          </mxGeometry>
        </mxCell>
        <mxCell id="PTGc_cxeWPIYV6TBkI2--26" value="goBack()" style="text;html=1;fillColor=none;align=center;verticalAlign=middle;whiteSpace=wrap;rounded=0;" vertex="1" parent="1">
          <mxGeometry x="110" y="1240" width="190" height="30" as="geometry" />
        </mxCell>
        <mxCell id="PTGc_cxeWPIYV6TBkI2--27" value="" style="shape=umlDestroy;whiteSpace=wrap;html=1;strokeWidth=3;targetShapes=umlLifeline;fillColor=#e51400;strokeColor=#B20000;fontColor=#ffffff;" vertex="1" parent="1">
          <mxGeometry x="325" y="1310" width="30" height="30" as="geometry" />
        </mxCell>
        <mxCell id="PTGc_cxeWPIYV6TBkI2--29" value="" style="html=1;points=[[0,0,0,0,5],[0,1,0,0,-5],[1,0,0,0,5],[1,1,0,0,-5]];perimeter=orthogonalPerimeter;outlineConnect=0;targetShapes=umlLifeline;portConstraint=eastwest;newEdgeStyle={&quot;curved&quot;:0,&quot;rounded&quot;:0};fillColor=#dae8fc;strokeColor=#6c8ebf;" vertex="1" parent="1">
          <mxGeometry x="65" y="190" width="10" height="40" as="geometry" />
        </mxCell>
        <mxCell id="PTGc_cxeWPIYV6TBkI2--30" value="" style="html=1;points=[[0,0,0,0,5],[0,1,0,0,-5],[1,0,0,0,5],[1,1,0,0,-5]];perimeter=orthogonalPerimeter;outlineConnect=0;targetShapes=umlLifeline;portConstraint=eastwest;newEdgeStyle={&quot;curved&quot;:0,&quot;rounded&quot;:0};fillColor=#dae8fc;strokeColor=#6c8ebf;" vertex="1" parent="1">
          <mxGeometry x="695" y="200" width="10" height="360" as="geometry" />
        </mxCell>
        <mxCell id="PTGc_cxeWPIYV6TBkI2--32" value="" style="html=1;points=[[0,0,0,0,5],[0,1,0,0,-5],[1,0,0,0,5],[1,1,0,0,-5]];perimeter=orthogonalPerimeter;outlineConnect=0;targetShapes=umlLifeline;portConstraint=eastwest;newEdgeStyle={&quot;curved&quot;:0,&quot;rounded&quot;:0};fillColor=#dae8fc;strokeColor=#6c8ebf;" vertex="1" parent="1">
          <mxGeometry x="700" y="250" width="10" height="40" as="geometry" />
        </mxCell>
        <mxCell id="PTGc_cxeWPIYV6TBkI2--33" value="&lt;div&gt;generate&lt;/div&gt;&lt;div&gt;Keywords(query)&lt;/div&gt;" style="html=1;align=left;spacingLeft=2;endArrow=block;rounded=0;edgeStyle=orthogonalEdgeStyle;curved=0;rounded=0;fillColor=#dae8fc;strokeColor=#6c8ebf;" edge="1" target="PTGc_cxeWPIYV6TBkI2--32" parent="1">
          <mxGeometry relative="1" as="geometry">
            <mxPoint x="705" y="210" as="sourcePoint" />
            <Array as="points">
              <mxPoint x="735" y="240" />
            </Array>
          </mxGeometry>
        </mxCell>
        <mxCell id="PTGc_cxeWPIYV6TBkI2--37" value="" style="html=1;points=[[0,0,0,0,5],[0,1,0,0,-5],[1,0,0,0,5],[1,1,0,0,-5]];perimeter=orthogonalPerimeter;outlineConnect=0;targetShapes=umlLifeline;portConstraint=eastwest;newEdgeStyle={&quot;curved&quot;:0,&quot;rounded&quot;:0};fillColor=#dae8fc;strokeColor=#6c8ebf;" vertex="1" parent="1">
          <mxGeometry x="1035" y="300" width="10" height="130" as="geometry" />
        </mxCell>
        <mxCell id="PTGc_cxeWPIYV6TBkI2--38" value="" style="html=1;points=[[0,0,0,0,5],[0,1,0,0,-5],[1,0,0,0,5],[1,1,0,0,-5]];perimeter=orthogonalPerimeter;outlineConnect=0;targetShapes=umlLifeline;portConstraint=eastwest;newEdgeStyle={&quot;curved&quot;:0,&quot;rounded&quot;:0};fillColor=#dae8fc;strokeColor=#6c8ebf;" vertex="1" parent="1">
          <mxGeometry x="700" y="460" width="10" height="40" as="geometry" />
        </mxCell>
        <mxCell id="PTGc_cxeWPIYV6TBkI2--39" value="rankResults(query, results)" style="html=1;align=left;spacingLeft=2;endArrow=block;rounded=0;edgeStyle=orthogonalEdgeStyle;curved=0;rounded=0;fillColor=#dae8fc;strokeColor=#6c8ebf;" edge="1" target="PTGc_cxeWPIYV6TBkI2--38" parent="1">
          <mxGeometry relative="1" as="geometry">
            <mxPoint x="705" y="440" as="sourcePoint" />
            <Array as="points">
              <mxPoint x="735" y="470" />
            </Array>
          </mxGeometry>
        </mxCell>
        <mxCell id="PTGc_cxeWPIYV6TBkI2--40" value="" style="html=1;points=[[0,0,0,0,5],[0,1,0,0,-5],[1,0,0,0,5],[1,1,0,0,-5]];perimeter=orthogonalPerimeter;outlineConnect=0;targetShapes=umlLifeline;portConstraint=eastwest;newEdgeStyle={&quot;curved&quot;:0,&quot;rounded&quot;:0};fillColor=#dae8fc;strokeColor=#6c8ebf;" vertex="1" parent="1">
          <mxGeometry x="65" y="510" width="10" height="120" as="geometry" />
        </mxCell>
        <mxCell id="PTGc_cxeWPIYV6TBkI2--41" value="" style="html=1;points=[[0,0,0,0,5],[0,1,0,0,-5],[1,0,0,0,5],[1,1,0,0,-5]];perimeter=orthogonalPerimeter;outlineConnect=0;targetShapes=umlLifeline;portConstraint=eastwest;newEdgeStyle={&quot;curved&quot;:0,&quot;rounded&quot;:0};fillColor=#dae8fc;strokeColor=#6c8ebf;" vertex="1" parent="1">
          <mxGeometry x="65" y="680" width="10" height="230" as="geometry" />
        </mxCell>
        <mxCell id="PTGc_cxeWPIYV6TBkI2--42" value="" style="html=1;points=[[0,0,0,0,5],[0,1,0,0,-5],[1,0,0,0,5],[1,1,0,0,-5]];perimeter=orthogonalPerimeter;outlineConnect=0;targetShapes=umlLifeline;portConstraint=eastwest;newEdgeStyle={&quot;curved&quot;:0,&quot;rounded&quot;:0};fillColor=#dae8fc;strokeColor=#6c8ebf;" vertex="1" parent="1">
          <mxGeometry x="335" y="675" width="10" height="120" as="geometry" />
        </mxCell>
        <mxCell id="PTGc_cxeWPIYV6TBkI2--44" value="" style="html=1;points=[[0,0,0,0,5],[0,1,0,0,-5],[1,0,0,0,5],[1,1,0,0,-5]];perimeter=orthogonalPerimeter;outlineConnect=0;targetShapes=umlLifeline;portConstraint=eastwest;newEdgeStyle={&quot;curved&quot;:0,&quot;rounded&quot;:0};fillColor=#dae8fc;strokeColor=#6c8ebf;" vertex="1" parent="1">
          <mxGeometry x="335" y="1030" width="10" height="70" as="geometry" />
        </mxCell>
        <mxCell id="PTGc_cxeWPIYV6TBkI2--47" value="" style="html=1;points=[[0,0,0,0,5],[0,1,0,0,-5],[1,0,0,0,5],[1,1,0,0,-5]];perimeter=orthogonalPerimeter;outlineConnect=0;targetShapes=umlLifeline;portConstraint=eastwest;newEdgeStyle={&quot;curved&quot;:0,&quot;rounded&quot;:0};fillColor=#dae8fc;strokeColor=#6c8ebf;" vertex="1" parent="1">
          <mxGeometry x="535" y="795" width="10" height="265" as="geometry" />
        </mxCell>
        <mxCell id="PTGc_cxeWPIYV6TBkI2--48" value="" style="html=1;points=[[0,0,0,0,5],[0,1,0,0,-5],[1,0,0,0,5],[1,1,0,0,-5]];perimeter=orthogonalPerimeter;outlineConnect=0;targetShapes=umlLifeline;portConstraint=eastwest;newEdgeStyle={&quot;curved&quot;:0,&quot;rounded&quot;:0};fillColor=#dae8fc;strokeColor=#6c8ebf;" vertex="1" parent="1">
          <mxGeometry x="542.5" y="907.5" width="10" height="40" as="geometry" />
        </mxCell>
        <mxCell id="PTGc_cxeWPIYV6TBkI2--49" value="&lt;div&gt;ResultPage&lt;/div&gt;&lt;div&gt;(searchResult)&lt;br&gt;&lt;/div&gt;" style="html=1;align=left;spacingLeft=2;endArrow=block;rounded=0;edgeStyle=orthogonalEdgeStyle;curved=0;rounded=0;fillColor=#dae8fc;strokeColor=#6c8ebf;" edge="1" target="PTGc_cxeWPIYV6TBkI2--48" parent="1">
          <mxGeometry x="0.1966" relative="1" as="geometry">
            <mxPoint x="545" y="805" as="sourcePoint" />
            <Array as="points">
              <mxPoint x="545" y="880" />
              <mxPoint x="575" y="880" />
              <mxPoint x="575" y="928" />
            </Array>
            <mxPoint as="offset" />
          </mxGeometry>
        </mxCell>
        <mxCell id="PTGc_cxeWPIYV6TBkI2--58" value="Loop" style="shape=umlFrame;whiteSpace=wrap;html=1;pointerEvents=0;fillColor=#dae8fc;strokeColor=#6c8ebf;" vertex="1" parent="1">
          <mxGeometry x="440" y="810" width="215" height="170" as="geometry" />
        </mxCell>
        <mxCell id="PTGc_cxeWPIYV6TBkI2--61" value="" style="html=1;points=[[0,0,0,0,5],[0,1,0,0,-5],[1,0,0,0,5],[1,1,0,0,-5]];perimeter=orthogonalPerimeter;outlineConnect=0;targetShapes=umlLifeline;portConstraint=eastwest;newEdgeStyle={&quot;curved&quot;:0,&quot;rounded&quot;:0};fillColor=#dae8fc;strokeColor=#6c8ebf;" vertex="1" parent="1">
          <mxGeometry x="65" y="1050" width="10" height="45" as="geometry" />
        </mxCell>
        <mxCell id="PTGc_cxeWPIYV6TBkI2--62" value="" style="endArrow=classic;html=1;rounded=0;dashed=1;dashPattern=8 8;fillColor=#dae8fc;strokeColor=#6c8ebf;" edge="1" parent="1" target="PTGc_cxeWPIYV6TBkI2--61">
          <mxGeometry width="50" height="50" relative="1" as="geometry">
            <mxPoint x="335" y="1080" as="sourcePoint" />
            <mxPoint x="-55" y="1080" as="targetPoint" />
          </mxGeometry>
        </mxCell>
        <mxCell id="PTGc_cxeWPIYV6TBkI2--65" value="" style="endArrow=classic;html=1;rounded=0;dashed=1;dashPattern=8 8;fillColor=#dae8fc;strokeColor=#6c8ebf;" edge="1" parent="1" target="PTGc_cxeWPIYV6TBkI2--47">
          <mxGeometry width="50" height="50" relative="1" as="geometry">
            <mxPoint x="75" y="848.95" as="sourcePoint" />
            <mxPoint x="335" y="849" as="targetPoint" />
          </mxGeometry>
        </mxCell>
        <mxCell id="PTGc_cxeWPIYV6TBkI2--66" value="User clicks on any search result" style="text;html=1;fillColor=none;align=center;verticalAlign=middle;whiteSpace=wrap;rounded=0;" vertex="1" parent="1">
          <mxGeometry x="220" y="820" width="190" height="30" as="geometry" />
        </mxCell>
        <mxCell id="PTGc_cxeWPIYV6TBkI2--60" value="" style="html=1;points=[[0,0,0,0,5],[0,1,0,0,-5],[1,0,0,0,5],[1,1,0,0,-5]];perimeter=orthogonalPerimeter;outlineConnect=0;targetShapes=umlLifeline;portConstraint=eastwest;newEdgeStyle={&quot;curved&quot;:0,&quot;rounded&quot;:0};fillColor=#dae8fc;strokeColor=#6c8ebf;" vertex="1" parent="1">
          <mxGeometry x="65" y="1240" width="10" height="60" as="geometry" />
        </mxCell>
        <mxCell id="PTGc_cxeWPIYV6TBkI2--59" value="" style="html=1;points=[[0,0,0,0,5],[0,1,0,0,-5],[1,0,0,0,5],[1,1,0,0,-5]];perimeter=orthogonalPerimeter;outlineConnect=0;targetShapes=umlLifeline;portConstraint=eastwest;newEdgeStyle={&quot;curved&quot;:0,&quot;rounded&quot;:0};fillColor=#dae8fc;strokeColor=#6c8ebf;" vertex="1" parent="1">
          <mxGeometry x="335" y="1250" width="10" height="40" as="geometry" />
        </mxCell>
        <mxCell id="PTGc_cxeWPIYV6TBkI2--76" value="" style="endArrow=none;dashed=1;html=1;rounded=0;entryX=0.5;entryY=1;entryDx=0;entryDy=0;exitX=0.885;exitY=1;exitDx=0;exitDy=0;exitPerimeter=0;fillColor=#dae8fc;strokeColor=#6c8ebf;" edge="1" parent="1" source="PTGc_cxeWPIYV6TBkI2--79" target="PTGc_cxeWPIYV6TBkI2--5">
          <mxGeometry width="50" height="50" relative="1" as="geometry">
            <mxPoint x="1040" y="1250" as="sourcePoint" />
            <mxPoint x="1040" y="110" as="targetPoint" />
          </mxGeometry>
        </mxCell>
        <mxCell id="PTGc_cxeWPIYV6TBkI2--79" value="Searching" style="shape=umlFrame;whiteSpace=wrap;html=1;pointerEvents=0;width=110;height=60;fillColor=#dae8fc;strokeColor=#6c8ebf;" vertex="1" parent="1">
          <mxGeometry x="-170" width="1370" height="1380" as="geometry" />
        </mxCell>
      </root>
    </mxGraphModel>
  </diagram>
</mxfile>
